<svg width="62" height="48" viewBox="0 0 62 48" fill="none" xmlns="http://www.w3.org/2000/svg">
<path d="M24.0625 6.35C19.2786 6.35 14.6907 8.25038 11.308 11.6331C7.92534 15.0158 6.02497 19.6037 6.02497 24.3875C6.02497 29.1713 7.92534 33.7593 11.308 37.1419C14.6907 40.5246 19.2786 42.425 24.0625 42.425H43.4875C45.239 42.4233 46.9706 42.0532 48.5697 41.3387C50.1689 40.6241 51.5998 39.5812 52.7696 38.2776C53.9394 36.974 54.8219 35.4388 55.3597 33.7719C55.8975 32.105 56.0786 30.3436 55.8913 28.6021C55.704 26.8607 55.1525 25.1781 54.2725 23.6637C53.3925 22.1492 52.2038 20.8369 50.7836 19.8118C49.3633 18.7868 47.7433 18.072 46.0288 17.7138C44.3143 17.3557 42.5436 17.3623 40.8318 17.7331C39.4979 14.3746 37.1863 11.494 34.1964 9.46447C31.2066 7.43492 27.6761 6.34992 24.0625 6.35ZM43.4875 47.975H24.0625C19.9561 47.974 15.9212 46.901 12.3567 44.8622C8.79227 42.8234 5.82184 39.8893 3.73924 36.3503C1.65664 32.8112 0.534029 28.7898 0.482452 24.6838C0.430875 20.5777 1.45212 16.5294 3.44517 12.9391C5.43821 9.34889 8.33401 6.34115 11.8461 4.21342C15.3582 2.0857 19.365 0.911713 23.47 0.807589C27.575 0.703464 31.6361 1.67281 35.2516 3.61974C38.867 5.56668 41.9116 8.42374 44.0841 11.9083C48.8229 12.0517 53.3148 14.0551 56.5878 17.485C59.8609 20.9149 61.652 25.4956 61.5736 30.2359C61.4951 34.9763 59.5535 39.4952 56.1688 42.8149C52.7841 46.1347 48.2285 47.9884 43.4875 47.975V47.975Z" fill="#99A0AE"/>
</svg>
