<svg width="40" height="40" viewBox="0 0 40 40" fill="none" xmlns="http://www.w3.org/2000/svg">
<g filter="url(#filter0_d_1415_124)">
<path d="M2 9C2 4.58172 5.58172 1 10 1H30C34.4183 1 38 4.58172 38 9V29C38 33.4183 34.4183 37 30 37H10C5.58172 37 2 33.4183 2 29V9Z" fill="white"/>
<path d="M10 1.5H30C34.1421 1.5 37.5 4.85786 37.5 9V29C37.5 33.1421 34.1421 36.5 30 36.5H10C5.85786 36.5 2.5 33.1421 2.5 29V9C2.5 4.85786 5.85786 1.5 10 1.5Z" stroke="#E1E4EA"/>
<path d="M15.0005 13.4087C15.7705 12.719 16.675 12.196 17.657 11.8727C17.9378 12.2245 18.2942 12.5085 18.6999 12.7035C19.1055 12.8985 19.5499 12.9996 20 12.9992C20.4501 12.9996 20.8944 12.8985 21.3001 12.7035C21.7057 12.5085 22.0622 12.2245 22.343 11.8727C23.325 12.196 24.2294 12.719 24.9995 13.4087C24.8356 13.8276 24.7682 14.2779 24.8022 14.7264C24.8362 15.1749 24.9708 15.6099 25.196 15.9992C25.4207 16.3893 25.7304 16.7237 26.1022 16.9776C26.4739 17.2314 26.8981 17.3982 27.3432 17.4655C27.5536 18.4772 27.5536 19.5213 27.3432 20.533C26.4732 20.6665 25.6707 21.178 25.196 21.9992C24.9707 22.3887 24.836 22.8238 24.802 23.2724C24.768 23.721 24.8355 24.1716 24.9995 24.5905C24.2294 25.28 23.3249 25.8027 22.343 26.1257C22.0621 25.7741 21.7056 25.4903 21.3 25.2954C20.8944 25.1005 20.45 24.9995 20 25C19.5499 24.9996 19.1055 25.1007 18.6999 25.2957C18.2942 25.4908 17.9378 25.7747 17.657 26.1265C16.6751 25.8035 15.7706 25.2808 15.0005 24.5912C15.1645 24.1723 15.232 23.7218 15.1979 23.2732C15.1639 22.8246 15.0293 22.3894 14.804 22C14.5792 21.6101 14.2694 21.2758 13.8977 21.0221C13.5259 20.7684 13.1018 20.6017 12.6567 20.5345C12.4462 19.5226 12.4462 18.4782 12.6567 17.4662C13.1018 17.3989 13.526 17.2322 13.8978 16.9783C14.2695 16.7245 14.5793 16.3901 14.804 16C15.0291 15.6107 15.1637 15.1756 15.1978 14.7272C15.2318 14.2787 15.1643 13.8283 15.0005 13.4095V13.4087ZM21.125 20.9477C21.3829 20.8011 21.6093 20.6048 21.7911 20.3703C21.9729 20.1358 22.1066 19.8677 22.1843 19.5813C22.262 19.2949 22.2824 18.996 22.2441 18.7018C22.2059 18.4075 22.1098 18.1237 21.9614 17.8668C21.8131 17.6098 21.6153 17.3847 21.3796 17.2044C21.1439 17.0242 20.8749 16.8924 20.588 16.8165C20.3011 16.7407 20.0021 16.7223 19.7081 16.7625C19.4141 16.8027 19.131 16.9007 18.875 17.0507C18.3624 17.3512 17.9895 17.8423 17.8376 18.4167C17.6858 18.9911 17.7673 19.6023 18.0644 20.1168C18.3614 20.6314 18.85 21.0075 19.4234 21.1632C19.9968 21.3188 20.6085 21.2414 21.125 20.9477Z" fill="#525866"/>
</g>
<defs>
<filter id="filter0_d_1415_124" x="0" y="0" width="40" height="40" filterUnits="userSpaceOnUse" color-interpolation-filters="sRGB">
<feFlood flood-opacity="0" result="BackgroundImageFix"/>
<feColorMatrix in="SourceAlpha" type="matrix" values="0 0 0 0 0 0 0 0 0 0 0 0 0 0 0 0 0 0 127 0" result="hardAlpha"/>
<feOffset dy="1"/>
<feGaussianBlur stdDeviation="1"/>
<feComposite in2="hardAlpha" operator="out"/>
<feColorMatrix type="matrix" values="0 0 0 0 0.0392157 0 0 0 0 0.0509804 0 0 0 0 0.0784314 0 0 0 0.03 0"/>
<feBlend mode="normal" in2="BackgroundImageFix" result="effect1_dropShadow_1415_124"/>
<feBlend mode="normal" in="SourceGraphic" in2="effect1_dropShadow_1415_124" result="shape"/>
</filter>
</defs>
</svg>
